<svg width="100" height="100" viewBox="0 0 100 100" fill="none" xmlns="http://www.w3.org/2000/svg">
<path d="M50 0C22.3858 0 0 22.3858 0 50C0 77.6143 22.3858 100 50 100C77.6143 100 100 77.6143 100 50C100 22.3858 77.6143 0 50 0ZM50 5.88242C62.0893 5.88242 73.0056 10.7823 80.9743 18.6581C77.6061 18.0051 74.1447 17.6472 70.5882 17.6472C69.6238 17.6472 68.6915 17.5972 67.739 17.6472C60.2847 18.0349 53.1886 19.9647 46.7831 23.0699C42.3675 18.6236 38.0367 13.896 33.7316 9.00745C38.7625 7.01212 44.2588 5.88242 50 5.88242ZM27.2059 12.2243C31.4483 17.38 35.8588 22.1807 40.3493 26.8383C35.6117 29.9878 31.3648 33.804 27.7573 38.2353C27.3232 38.1971 26.9148 38.2353 26.4706 38.2353C25.2505 38.2353 24.1116 38.4148 22.978 38.6948C20.8021 34.32 19.0992 29.6532 17.9228 24.8162C17.5663 23.3505 17.4126 21.8922 17.3713 20.4044C20.2441 17.2392 23.5286 14.4487 27.2059 12.2243ZM80.9743 22.8861C82.3506 22.9096 83.6607 23.1201 85.0184 23.3457C90.6764 30.7634 94.1177 39.9506 94.1177 50C94.1177 54.5375 93.3679 58.9318 92.0956 63.0515C89.3871 60.8402 86.7105 58.5749 84.0074 56.342C84.8119 54.8748 85.2941 53.262 85.2941 51.4707C85.2941 45.7853 80.6853 41.1765 75 41.1765C72.5988 41.1765 70.4091 42.0042 68.6581 43.3823C64.1209 39.4262 59.6173 35.382 55.1471 31.1582C62.3546 27.1412 70.2188 24.2958 78.4007 23.0699C79.253 22.9421 80.1234 22.8723 80.9743 22.8861ZM12.3162 27.1141C12.8632 30.6437 13.6758 35.4717 13.8787 36.1214C14.5409 38.2417 15.2767 40.3176 16.1765 42.3714C13.4612 45.0395 11.7647 48.8337 11.7647 52.9412C11.7647 56.9314 13.4127 60.494 15.9926 63.1434C15.2066 66.9754 14.7059 70.9306 14.7059 75C14.7059 75.4581 14.6941 75.9232 14.7059 76.3787C9.18791 69.0129 5.88237 59.9116 5.88237 50C5.88237 41.6102 8.25045 33.7918 12.3162 27.1141ZM48.7132 35.2022C53.9953 40.2568 59.4192 45.0467 64.8897 49.7244C64.795 50.2853 64.7059 50.8826 64.7059 51.4707C64.7059 57.156 69.3147 61.7647 75 61.7647C76.2157 61.7647 77.4099 61.5082 78.4926 61.1214C82.0853 64.0361 85.7309 66.9663 89.3382 69.8529C88.5483 71.4167 87.7285 72.9065 86.7647 74.3566C84.3586 74.7698 81.875 75.1244 80.9743 75.1838C75.9135 75.5172 70.8318 74.9574 65.9007 73.8052C65.3124 68.6788 60.9825 64.7059 55.6985 64.7059C53.2221 64.7059 50.9488 65.5466 49.1728 67.0037C45.7193 64.9503 42.4138 62.53 39.3383 59.8346C40.4579 57.7595 41.1765 55.4644 41.1765 52.9412C41.1765 49.596 40.0248 46.4966 38.1434 44.0257C41.3324 40.7617 44.9235 37.8544 48.7132 35.2022ZM33.364 65.8089C37.0647 69.0827 41.1692 71.8869 45.4963 74.2647C45.4787 74.5083 45.4045 74.752 45.4045 75C45.4045 80.6853 50.0133 85.2942 55.6986 85.2942C59.1816 85.2942 62.2917 83.5297 64.1545 80.8823C68.4538 81.6145 72.9122 81.8643 77.3898 81.5258C78.7372 81.4244 80.0385 81.2487 81.342 80.9742C73.3443 89.0662 62.2764 94.1177 50.0001 94.1177C39.3862 94.1177 29.6706 90.3442 22.0589 84.0993C21.279 82.1971 20.5028 80.2508 20.5883 79.4118C21.0071 75.3033 22.0318 71.2176 23.4376 67.2794C24.422 67.487 25.4244 67.647 26.4707 67.647C28.9864 67.647 31.2933 66.9223 33.364 65.8089Z" fill="#00BCF2"/>
</svg>
