<svg width="434" height="619" viewBox="0 0 434 619" fill="none" xmlns="http://www.w3.org/2000/svg">
<path d="M296.209 186.1C283.645 194.1 222.078 189.3 202.499 181.7C193.703 178.3 187.316 179.5 183.024 181.9C184.594 159.4 186.688 134.8 186.688 115.6C201.452 88.7 172.239 28.9 133.708 0C173.6 46 186.479 113 176.532 116.9C166.585 120.7 167.423 216.2 168.888 224.5C170.354 232.8 152.24 275.6 134.441 285.9C117.897 295.5 119.468 333 119.363 332.9C119.363 332.9 118.316 379.8 118.421 403C118.421 409.4 118.421 416.4 118.316 423.9C118.212 431.4 118.107 438.9 117.897 446.2C117.688 453.5 117.479 460.5 117.164 467.1C116.85 473.7 116.536 479.2 116.117 483.5C120.62 483.1 125.122 482.9 129.415 482.9C133.708 482.9 138.21 483.1 142.712 483.5C141.77 475.4 141.037 467.3 140.828 459.3C140.514 451.3 140.409 443 140.409 434.6V417.6C140.409 415.3 141.351 414.2 143.341 414.2C144.178 414.2 144.911 414.5 145.749 415C146.586 415.6 147.215 416.2 147.843 417C151.403 420.6 155.591 425.1 160.617 430.6C165.538 436.1 170.773 441.9 176.113 448.1C181.558 454.3 187.002 460.6 192.552 466.9C198.101 473.2 203.022 478.7 207.315 483.4C210.037 483 212.76 482.8 215.273 482.8H230.245C232.863 482.8 235.899 483 239.25 483.4C226.79 470.8 214.644 458 202.708 445C190.772 432 179.15 419 167.946 406C178.207 396.4 188.992 386.9 200.3 377.6C211.608 368.3 223.544 358.8 236.004 349.2C232.653 349.6 229.931 349.9 227.732 350.2C225.534 350.5 223.44 350.6 221.241 350.6C217.681 350.6 213.911 350.1 210.037 349.2C205.535 354.3 200.509 359.7 194.96 365.3C189.411 371 184.071 376.3 178.835 381.3C173.6 386.3 168.888 390.7 164.596 394.4C160.303 398.2 157.371 400.7 155.591 402C153.183 403.7 151.089 405.2 149.204 406.5C147.319 407.8 145.644 408.5 144.074 408.5C141.665 408.5 140.514 406.7 140.514 403.1C140.723 380.2 137.791 355.9 139.781 333L141.351 300.7C141.351 300.7 189.829 256.1 183.547 239.1C181.139 232.6 181.034 218.9 181.872 202.2C191.505 200.1 217.89 194.8 230.769 199.3C246.684 204.8 284.063 203.1 301.34 197.3C318.616 191.5 341.232 157.7 341.232 157.7C341.232 157.7 308.774 178.1 296.209 186.1Z" fill="#4A4B4C"/>
<path d="M173.077 23.0002C175.38 23.2002 177.265 22.7002 178.417 21.4002C179.464 20.1002 179.673 18.3001 178.94 16.1001C183.757 14.9001 190.772 16.9001 196.845 21.6001C205.012 28.0001 208.362 37.0002 204.383 41.7002C200.405 46.4002 190.458 45.1002 182.291 38.7002C176.218 33.9002 172.867 27.8002 173.077 23.0002ZM280.922 219.9C279.561 218.6 278.095 217.9 276.629 218.2C275.268 218.4 274.116 219.6 273.279 221.3C269.509 219.6 266.264 214.8 265.007 208.7C264.798 207.8 264.693 206.8 264.588 205.9C263.751 206.4 263.018 206.9 262.075 207.4C256.421 210.4 250.349 210.9 246.579 209.2C247.417 207.5 247.626 206 246.998 204.8C246.37 203.6 244.904 202.9 242.915 202.7C243.438 198.8 247.207 194.3 252.966 191.3C253.804 190.8 254.746 190.4 255.584 190.1C254.851 189.5 254.013 188.9 253.385 188.3C248.673 184 246.265 178.8 246.789 174.8C248.673 175.1 250.349 174.8 251.291 173.8C252.233 172.8 252.443 171.3 252.129 169.5C256.212 168.8 261.866 170.8 266.578 175.1C267.311 175.8 267.939 176.4 268.567 177.1C268.881 176.2 269.195 175.4 269.719 174.5C272.546 168.9 277.048 165.1 281.132 164.3C281.446 166.1 282.179 167.5 283.54 168.1C284.796 168.7 286.472 168.4 288.147 167.5C290.136 171 289.822 176.8 287.1 182.3C286.681 183.2 286.157 184 285.634 184.8C286.576 184.8 287.623 184.9 288.566 185C294.953 185.8 300.188 188.7 302.177 192.2C300.397 193.1 299.35 194.2 299.141 195.5C298.931 196.8 299.664 198.2 301.13 199.5C298.303 202.4 292.44 203.9 286.053 203.1C285.006 203 284.063 202.8 283.121 202.6C283.435 203.5 283.645 204.4 283.854 205.3C285.11 211.4 283.749 217 280.922 219.9Z" fill="#FFCCCA"/>
<path d="M355.995 74.8998C355.053 74.6998 354.32 74.7998 353.796 75.1998C353.273 75.5998 353.063 76.3998 353.273 77.2998C351.284 77.4998 348.561 76.2998 346.467 74.0998C346.153 73.7998 345.839 73.3998 345.525 72.9998L344.897 74.1998C343.326 76.7998 340.918 78.4998 338.928 78.6998C338.824 77.7998 338.51 77.0998 337.881 76.7998C337.253 76.4998 336.52 76.4998 335.683 76.8998C334.845 75.0998 335.264 72.2998 336.834 69.6998C337.044 69.2998 337.358 68.8998 337.672 68.5998C337.253 68.5998 336.73 68.4998 336.206 68.3998C333.065 67.7998 330.657 66.1998 329.819 64.3998C330.657 63.9998 331.285 63.4998 331.39 62.8998C331.494 62.2998 331.18 61.5998 330.552 60.8998C332.018 59.5998 334.95 59.0998 338.091 59.6998C338.614 59.7998 339.033 59.8998 339.452 60.0998C339.347 59.6998 339.242 59.1998 339.242 58.6998C338.928 55.6998 339.766 52.9998 341.232 51.6998C341.86 52.3998 342.593 52.7998 343.221 52.6998C343.954 52.5998 344.478 52.0998 345.001 51.2998C346.781 52.2998 348.142 54.6998 348.456 57.6998C348.456 58.1998 348.561 58.5998 348.561 59.0998L349.818 58.4998C352.749 57.2998 355.681 57.1998 357.461 58.1998C356.938 58.9998 356.833 59.6998 357.042 60.2998C357.356 60.8998 357.985 61.2998 358.927 61.4998C358.508 63.3998 356.519 65.3998 353.587 66.6998C353.168 66.8998 352.645 66.9998 352.226 67.1998C352.54 67.4998 352.959 67.7998 353.273 68.1998C355.472 70.3998 356.414 72.9998 355.995 74.8998Z" fill="#FFCCCA"/>
<path d="M349.504 70.2001C349.085 70.1001 348.771 70.1001 348.561 70.3001C348.352 70.5001 348.247 70.8001 348.352 71.2001C347.41 71.3001 346.258 70.8001 345.316 69.8001C345.211 69.6001 345.002 69.5001 344.897 69.3001C344.792 69.5001 344.687 69.7001 344.583 69.8001C343.85 71.0001 342.803 71.7001 341.965 71.8001C341.965 71.4001 341.756 71.1001 341.546 70.9001C341.337 70.7001 340.918 70.8001 340.499 71.0001C340.185 70.2001 340.29 69.0001 341.023 67.8001C341.127 67.6001 341.232 67.4001 341.337 67.3001C341.127 67.3001 340.918 67.3001 340.709 67.2001C339.347 66.9001 338.3 66.2001 337.882 65.4001C338.3 65.2001 338.51 65.0001 338.615 64.7001C338.719 64.4001 338.51 64.1001 338.196 63.8001C338.824 63.2001 340.185 63.0001 341.546 63.3001C341.756 63.3001 341.965 63.4001 342.174 63.5001C342.174 63.3001 342.07 63.1001 342.07 62.9001C341.965 61.6001 342.279 60.4001 343.012 59.8001C343.326 60.1001 343.64 60.3001 343.954 60.2001C344.269 60.2001 344.478 59.9001 344.687 59.6001C345.42 60.0001 346.153 61.1001 346.258 62.5001V63.1001C346.467 63.0001 346.677 62.9001 346.781 62.8001C348.038 62.3001 349.399 62.2001 350.132 62.7001C349.923 63.0001 349.818 63.4001 349.923 63.6001C350.027 63.9001 350.341 64.0001 350.76 64.1001C350.551 64.9001 349.713 65.9001 348.352 66.4001C348.143 66.5001 347.933 66.6001 347.724 66.6001L348.143 67.0001C349.19 68.1001 349.608 69.3001 349.504 70.2001Z" fill="#F1423D"/>
<path d="M344.268 67.6C345.02 67.6 345.63 67.018 345.63 66.3C345.63 65.582 345.02 65 344.268 65C343.517 65 342.907 65.582 342.907 66.3C342.907 67.018 343.517 67.6 344.268 67.6Z" fill="#58595B"/>
<path d="M172.448 163.8C171.611 161.5 170.145 159.9 168.365 159.5C166.585 159.1 164.595 159.8 162.606 161.4C159.151 157.4 157.999 149.9 160.093 142C160.407 140.8 160.826 139.6 161.245 138.5C159.988 138.7 158.732 138.9 157.371 138.9C148.89 139.4 141.351 136.9 137.896 132.9C139.885 131.4 141.037 129.7 140.932 127.9C140.828 126.1 139.466 124.5 137.268 123.3C140.199 118.9 147.319 115.5 155.8 115C157.161 114.9 158.418 114.9 159.674 115C159.046 113.9 158.523 112.8 157.999 111.6C154.858 104 155.067 96.5 157.999 92.1C160.093 93.5 162.187 93.9 163.967 93.3C165.747 92.6 166.899 90.9 167.422 88.5C172.658 89.8 178.207 95.2 181.348 102.8C181.872 104 182.186 105.1 182.605 106.3C183.442 105.4 184.385 104.6 185.432 103.8C192.028 98.6 199.567 96.4 204.907 97.7C204.174 100.1 204.383 102.1 205.535 103.5C206.687 104.9 208.781 105.4 211.294 105.2C211.608 110.4 207.943 117.1 201.347 122.3C200.3 123.1 199.253 123.8 198.206 124.5C199.357 125 200.509 125.6 201.556 126.3C208.781 130.7 213.283 136.9 213.597 142.1C211.084 142.2 209.095 143 208.048 144.5C207.001 146 207.21 148 208.152 150.3C203.022 152.2 195.274 150.9 188.049 146.6C186.898 145.9 185.85 145.2 184.908 144.4C184.699 145.6 184.489 146.8 184.175 148C182.291 155.9 177.474 161.9 172.448 163.8Z" fill="#FFCCCA"/>
<path d="M298.303 99.4004C298.722 102.2 299.874 104.3 301.758 105.2C303.643 106.1 306.051 105.8 308.669 104.4C311.496 109.7 310.972 118.4 306.575 126.8C300.606 138.1 290.031 144.5 282.911 141.1C275.792 137.7 274.849 125.8 280.713 114.5C285.215 106 292.125 100.4 298.303 99.4004ZM116.117 250.3C116.431 252.5 117.374 254.1 118.84 254.8C120.305 255.5 122.19 255.2 124.179 254.2C126.378 258.3 125.959 265.1 122.504 271.5C117.897 280.2 109.73 285.2 104.181 282.6C98.6316 280 97.8986 270.7 102.506 262C105.961 255.4 111.301 251 116.117 250.3ZM429.602 96.2004C428.032 98.6004 427.404 100.8 428.241 102.7C429.079 104.6 431.173 105.8 434 106.5C432.429 112.3 426.042 118.5 416.933 122C404.683 126.8 392.328 124.9 389.291 117.9C386.255 110.9 393.793 101.3 406.044 96.5004C415.153 92.9004 424.262 93.0004 429.602 96.2004Z" fill="#F1423D"/>
<path d="M173.914 142.8C173.496 141.8 172.867 141.1 172.134 140.9C171.297 140.7 170.459 141 169.622 141.7C168.051 139.9 167.527 136.6 168.47 133.1C168.575 132.6 168.784 132 168.993 131.5C168.47 131.6 167.842 131.7 167.318 131.7C163.549 131.9 160.198 130.8 158.628 129C159.57 128.3 159.989 127.6 159.989 126.8C159.989 126 159.361 125.3 158.313 124.7C159.675 122.7 162.816 121.2 166.585 121H168.26C167.946 120.5 167.737 120 167.527 119.5C166.166 116.1 166.166 112.8 167.527 110.8C168.47 111.4 169.412 111.6 170.145 111.3C170.878 111 171.402 110.2 171.716 109.2C174.019 109.8 176.532 112.2 177.893 115.6C178.103 116.1 178.312 116.6 178.417 117.2C178.836 116.8 179.254 116.4 179.673 116.1C182.605 113.8 185.955 112.8 188.364 113.4C188.05 114.5 188.154 115.4 188.678 116C189.201 116.6 190.144 116.8 191.295 116.8C191.4 119.1 189.83 122.1 186.898 124.4C186.479 124.8 185.955 125.1 185.537 125.4C186.06 125.6 186.584 125.9 187.003 126.2C190.248 128.1 192.238 130.9 192.342 133.2C191.191 133.2 190.353 133.6 189.83 134.3C189.411 135 189.411 135.9 189.83 136.9C187.526 137.7 184.071 137.2 180.825 135.2C180.301 134.9 179.883 134.6 179.464 134.2C179.359 134.7 179.254 135.3 179.15 135.8C178.312 139.2 176.218 141.9 173.914 142.8Z" fill="#F1423D"/>
<path d="M175.171 129.3C177.137 129.3 178.731 127.778 178.731 125.9C178.731 124.022 177.137 122.5 175.171 122.5C173.205 122.5 171.611 124.022 171.611 125.9C171.611 127.778 173.205 129.3 175.171 129.3Z" fill="#58595B"/>
<path d="M364.058 160.4C362.696 160 361.649 159.3 361.335 158.4C361.021 157.4 361.335 156.3 362.278 155.2C359.765 153.5 355.262 153.1 350.655 154.6C349.923 154.8 349.294 155.1 348.561 155.4C348.666 154.7 348.666 154 348.666 153.3C348.666 148.7 346.886 144.7 344.373 142.9C343.536 144.1 342.593 144.7 341.546 144.7C340.499 144.7 339.452 144 338.614 142.9C336.102 144.7 334.426 148.7 334.426 153.3C334.426 154 334.531 154.7 334.531 155.4C333.903 155.1 333.17 154.9 332.437 154.6C327.83 153.2 323.328 153.6 320.815 155.3C321.757 156.4 322.071 157.5 321.757 158.5C321.443 159.5 320.501 160.2 319.035 160.6C319.977 163.4 323.432 166.2 328.144 167.6C328.877 167.8 329.61 168 330.238 168.1C329.715 168.6 329.296 169.2 328.877 169.7C326.05 173.5 325.003 177.7 326.05 180.5C327.411 180 328.667 180 329.505 180.6C330.343 181.2 330.762 182.3 330.762 183.7C333.903 183.7 337.777 181.4 340.604 177.6C341.023 177 341.441 176.4 341.756 175.8C342.07 176.4 342.488 177 342.907 177.6C345.734 181.3 349.713 183.6 352.75 183.6C352.75 182.2 353.064 181.1 353.901 180.5C354.739 179.9 355.995 179.9 357.357 180.3C358.299 177.5 357.252 173.3 354.32 169.5C353.901 168.9 353.378 168.4 352.959 167.9C353.692 167.8 354.425 167.6 355.053 167.4C359.66 166.1 363.115 163.3 364.058 160.4Z" fill="#FFCCCA"/>
<path d="M351.598 162.1C350.969 161.9 350.551 161.6 350.341 161.2C350.236 160.8 350.341 160.3 350.76 159.8C349.608 159 347.619 158.9 345.525 159.5L344.582 159.8C344.582 159.5 344.687 159.2 344.582 158.9C344.582 156.8 343.745 155.1 342.698 154.3C342.279 154.8 341.86 155.1 341.441 155.1C340.918 155.1 340.499 154.8 340.185 154.3C339.033 155.1 338.3 156.9 338.3 158.9C338.3 159.2 338.3 159.5 338.405 159.8L337.463 159.5C335.368 158.9 333.379 159 332.227 159.8C332.646 160.3 332.751 160.8 332.646 161.2C332.541 161.6 332.018 161.9 331.494 162.1C331.913 163.4 333.484 164.6 335.578 165.2C335.892 165.3 336.206 165.4 336.52 165.4C336.311 165.6 336.101 165.9 335.892 166.1C334.635 167.8 334.217 169.7 334.636 170.9C335.264 170.7 335.787 170.7 336.206 171C336.625 171.3 336.73 171.8 336.73 172.4C338.091 172.4 339.871 171.4 341.127 169.7C341.337 169.4 341.546 169.2 341.651 168.9C341.86 169.2 341.965 169.4 342.174 169.7C343.431 171.4 345.211 172.4 346.572 172.4C346.572 171.8 346.677 171.3 347.095 171C347.514 170.7 348.038 170.7 348.666 170.9C349.085 169.6 348.561 167.8 347.305 166.1C347.095 165.8 346.886 165.6 346.677 165.4C346.991 165.3 347.305 165.3 347.619 165.2C349.608 164.6 351.179 163.3 351.598 162.1Z" fill="#F1423D"/>
<path d="M341.546 165.3C342.645 165.3 343.535 164.449 343.535 163.4C343.535 162.351 342.645 161.5 341.546 161.5C340.447 161.5 339.557 162.351 339.557 163.4C339.557 164.449 340.447 165.3 341.546 165.3Z" fill="#58595B"/>
<path d="M274.849 204.9C274.221 204.3 273.593 204 272.965 204.1C272.336 204.2 271.813 204.7 271.499 205.5C269.824 204.7 268.358 202.6 267.834 199.9C267.729 199.5 267.729 199.1 267.625 198.7C267.311 198.9 266.892 199.2 266.473 199.4C263.96 200.7 261.238 201 259.563 200.2C259.981 199.5 260.086 198.8 259.772 198.2C259.458 197.7 258.83 197.4 257.992 197.3C258.201 195.5 259.877 193.5 262.494 192.2C262.913 192 263.332 191.8 263.646 191.7C263.332 191.5 263.018 191.2 262.599 190.9C260.505 189 259.458 186.7 259.667 184.9C260.505 185 261.238 184.9 261.657 184.5C262.075 184.1 262.18 183.4 261.971 182.6C263.751 182.3 266.264 183.2 268.358 185.1L269.3 186C269.405 185.6 269.614 185.2 269.824 184.8C271.08 182.3 273.069 180.6 274.849 180.3C274.954 181.1 275.373 181.7 275.896 182C276.42 182.3 277.153 182.1 277.886 181.7C278.723 183.3 278.619 185.8 277.362 188.3C277.153 188.7 276.943 189.1 276.734 189.4C277.153 189.4 277.572 189.4 278.095 189.5C280.922 189.9 283.226 191.2 284.168 192.7C283.435 193.1 282.912 193.6 282.807 194.2C282.702 194.8 283.016 195.4 283.749 196C282.493 197.3 279.875 198 277.048 197.6C276.629 197.5 276.211 197.5 275.792 197.4L276.106 198.6C276.734 201.2 276.211 203.7 274.849 204.9Z" fill="#F1423D"/>
<path d="M384.789 189.3C387.093 190.7 389.291 191.3 391.176 190.5C393.061 189.8 394.212 188 394.841 185.4C400.495 186.8 406.463 192.5 409.813 200.6C414.42 211.5 412.536 222.5 405.625 225.1C398.715 227.7 389.501 221 384.894 210.2C381.543 202.1 381.648 194 384.789 189.3Z" fill="#FFCCCA"/>
<path d="M270.033 195.5C271.536 195.5 272.755 194.336 272.755 192.9C272.755 191.464 271.536 190.3 270.033 190.3C268.529 190.3 267.311 191.464 267.311 192.9C267.311 194.336 268.529 195.5 270.033 195.5Z" fill="#58595B"/>
<path d="M185.85 247.3C184.384 246.2 182.919 245.6 181.662 246C180.301 246.3 179.359 247.5 178.73 249.2C174.961 247.9 171.401 243.5 169.726 237.8C169.516 236.9 169.307 236 169.098 235.2C168.365 235.8 167.632 236.3 166.794 236.8C161.664 240.1 155.905 241.1 152.24 239.8C152.973 238.1 152.973 236.7 152.24 235.6C151.507 234.5 150.041 234 148.157 233.9C148.366 230.1 151.507 225.5 156.742 222.2C157.58 221.7 158.313 221.2 159.151 220.8C158.418 220.3 157.58 219.8 156.847 219.2C152.031 215.5 149.204 210.7 149.413 206.9C151.298 207 152.764 206.6 153.601 205.6C154.439 204.6 154.544 203.1 154.02 201.4C157.894 200.4 163.444 201.9 168.26 205.6C168.993 206.2 169.726 206.8 170.354 207.4C170.563 206.5 170.878 205.7 171.192 204.8C173.391 199.2 177.369 195.2 181.139 194.2C181.557 195.9 182.5 197.2 183.756 197.6C185.013 198.1 186.583 197.7 188.049 196.6C190.248 199.8 190.457 205.3 188.259 210.9C187.944 211.8 187.526 212.6 187.107 213.4C188.049 213.3 188.991 213.3 189.934 213.4C196.111 213.7 201.347 216 203.545 219.2C201.975 220.2 201.032 221.3 200.928 222.6C200.823 223.9 201.765 225.1 203.231 226.2C200.718 229.2 195.274 231.1 189.096 230.8C188.154 230.8 187.212 230.7 186.269 230.5C186.583 231.3 186.897 232.2 187.211 233.1C189.096 238.9 188.363 244.3 185.85 247.3Z" fill="#FFCCCA"/>
<path d="M178.835 233.5C178.207 233 177.579 232.8 176.951 232.9C176.322 233.1 175.904 233.6 175.694 234.3C174.019 233.7 172.448 231.8 171.715 229.2L171.401 228C171.087 228.3 170.773 228.5 170.354 228.7C168.051 230.2 165.538 230.6 163.863 230C164.177 229.3 164.177 228.6 163.863 228.1C163.548 227.6 162.92 227.4 162.083 227.4C162.187 225.7 163.548 223.7 165.852 222.2C166.166 222 166.585 221.8 166.899 221.6C166.585 221.4 166.166 221.2 165.852 220.9C163.653 219.3 162.397 217.1 162.501 215.4C163.339 215.5 163.967 215.3 164.386 214.8C164.805 214.3 164.805 213.7 164.595 212.9C166.271 212.5 168.784 213.1 170.982 214.8C171.297 215.1 171.611 215.3 171.925 215.6C172.029 215.2 172.134 214.8 172.344 214.5C173.286 212 175.066 210.2 176.741 209.8C176.951 210.6 177.369 211.1 177.893 211.3C178.416 211.5 179.149 211.3 179.778 210.9C180.72 212.3 180.825 214.8 179.882 217.3C179.778 217.7 179.568 218.1 179.359 218.4H180.615C183.338 218.5 185.746 219.6 186.688 221C185.955 221.4 185.536 221.9 185.536 222.5C185.536 223.1 185.85 223.6 186.583 224.1C185.432 225.4 183.023 226.3 180.301 226.2C179.882 226.2 179.463 226.1 179.045 226.1C179.149 226.5 179.359 226.8 179.463 227.2C180.196 229.7 179.882 232.2 178.835 233.5Z" fill="#F1423D"/>
<path d="M173.077 224.9C174.522 224.9 175.694 223.781 175.694 222.4C175.694 221.02 174.522 219.9 173.077 219.9C171.631 219.9 170.459 221.02 170.459 222.4C170.459 223.781 171.631 224.9 173.077 224.9Z" fill="#58595B"/>
<path d="M228.256 241.9C229.335 241.592 230.34 241.083 231.214 240.403C232.088 239.724 232.812 238.886 233.347 237.939C233.882 236.992 234.216 235.954 234.331 234.883C234.445 233.813 234.338 232.731 234.015 231.7C233.691 230.669 233.159 229.709 232.447 228.875C231.736 228.041 230.859 227.348 229.867 226.838C228.876 226.327 227.788 226.008 226.667 225.898C225.547 225.789 224.414 225.892 223.335 226.2C218.728 227.5 216.215 232 217.576 236.4C218.937 240.7 223.754 243.2 228.256 241.9ZM223.963 228.2C227.314 227.2 230.978 229.1 231.921 232.3C232.968 235.5 230.978 239 227.628 239.9C224.277 240.8 220.612 239 219.67 235.8C218.623 232.6 220.612 229.2 223.963 228.2Z" fill="#F8DDDE"/>
<path d="M315.789 250.9C322.15 250.9 327.306 245.976 327.306 239.9C327.306 233.825 322.15 228.9 315.789 228.9C309.428 228.9 304.271 233.825 304.271 239.9C304.271 245.976 309.428 250.9 315.789 250.9Z" fill="#F8DDDE"/>
<path d="M247.207 263.8C250.85 263.8 253.804 260.98 253.804 257.5C253.804 254.021 250.85 251.2 247.207 251.2C243.564 251.2 240.611 254.021 240.611 257.5C240.611 260.98 243.564 263.8 247.207 263.8Z" fill="#F8DDDE"/>
<path d="M264.483 298.8C262.808 298.2 261.342 298.2 260.295 298.9C259.248 299.6 258.725 301 258.829 302.7C255.06 302.7 250.348 299.9 246.893 295.3C246.37 294.6 245.846 293.9 245.427 293.1C245.008 293.8 244.485 294.5 243.961 295.2C240.401 299.7 235.69 302.4 231.92 302.4C232.025 300.7 231.502 299.4 230.455 298.6C229.407 297.9 227.942 297.8 226.266 298.4C225.115 294.9 226.476 289.8 229.931 285.3C230.455 284.6 231.083 283.9 231.606 283.3C230.769 283.1 229.931 282.9 228.989 282.6C223.439 280.8 219.251 277.3 218.099 273.9C219.775 273.4 221.031 272.6 221.45 271.4C221.869 270.2 221.45 268.9 220.403 267.5C223.544 265.4 228.989 265 234.538 266.8C235.376 267.1 236.213 267.4 237.051 267.8C236.946 267 236.946 266.1 236.946 265.2C236.946 259.6 239.145 254.7 242.286 252.6C243.333 254 244.485 254.8 245.741 254.8C246.998 254.8 248.254 254 249.301 252.6C252.338 254.8 254.432 259.6 254.432 265.3C254.432 266.2 254.327 267 254.222 267.9L256.735 267C262.389 265.3 267.834 265.8 270.87 267.9C269.823 269.2 269.3 270.6 269.719 271.8C270.138 273 271.289 273.8 272.964 274.3C271.708 277.7 267.52 281.1 261.971 282.8C261.133 283.1 260.191 283.3 259.353 283.4C259.981 284 260.505 284.7 261.028 285.4C264.483 290.3 265.635 295.4 264.483 298.8Z" fill="#FFCCCA"/>
<path d="M253.49 288.7C252.757 288.4 252.128 288.4 251.605 288.8C251.186 289.1 250.872 289.7 250.977 290.5C249.301 290.5 247.207 289.3 245.637 287.2C245.427 286.9 245.218 286.6 245.009 286.2C244.799 286.5 244.59 286.8 244.38 287.2C242.81 289.2 240.716 290.4 239.04 290.4C239.04 289.6 238.831 289 238.412 288.7C237.993 288.4 237.26 288.4 236.527 288.6C236.004 287.1 236.632 284.8 238.203 282.8C238.412 282.5 238.726 282.2 238.936 281.9C238.517 281.8 238.203 281.7 237.784 281.6C235.271 280.8 233.491 279.3 232.968 277.7C233.7 277.5 234.224 277.1 234.433 276.6C234.643 276.1 234.433 275.5 233.91 274.9C235.271 274 237.784 273.8 240.192 274.6C240.611 274.7 240.925 274.9 241.344 275C241.344 274.6 241.239 274.2 241.239 273.9C241.239 271.4 242.182 269.2 243.647 268.3C244.066 268.9 244.59 269.3 245.218 269.3C245.846 269.3 246.37 268.9 246.789 268.3C248.15 269.3 249.092 271.4 249.092 273.9C249.092 274.3 249.092 274.7 248.987 275C249.301 274.8 249.72 274.7 250.139 274.6C252.652 273.8 255.06 274.1 256.421 275C255.898 275.6 255.688 276.2 255.898 276.7C256.107 277.2 256.631 277.6 257.364 277.8C256.84 279.3 254.955 280.8 252.443 281.6C252.024 281.7 251.71 281.8 251.291 281.9C251.5 282.2 251.814 282.5 252.024 282.8C253.49 284.9 254.013 287.2 253.49 288.7Z" fill="#F1423D"/>
<path d="M244.59 282.9C245.978 282.9 247.103 281.826 247.103 280.5C247.103 279.175 245.978 278.1 244.59 278.1C243.202 278.1 242.077 279.175 242.077 280.5C242.077 281.826 243.202 282.9 244.59 282.9Z" fill="#58595B"/>
<path d="M191.714 298.9C195.357 298.9 198.31 296.079 198.31 292.6C198.31 289.12 195.357 286.3 191.714 286.3C188.071 286.3 185.118 289.12 185.118 292.6C185.118 296.079 188.071 298.9 191.714 298.9Z" fill="#F8DDDE"/>
<path d="M142.293 318.3C141.665 317.7 140.932 317.3 140.199 317.5C139.466 317.6 138.943 318.2 138.629 319C136.849 318.2 135.174 315.8 134.65 312.8C134.545 312.3 134.545 311.9 134.441 311.4C134.022 311.7 133.603 311.9 133.184 312.1C130.357 313.5 127.53 313.8 125.645 313C126.064 312.2 126.169 311.4 125.855 310.9C125.541 310.3 124.808 310 123.865 309.9C124.18 308 125.96 305.8 128.787 304.3L130.043 303.7C129.624 303.4 129.31 303.1 128.891 302.8C126.588 300.7 125.436 298.2 125.645 296.2C126.588 296.3 127.321 296.2 127.844 295.7C128.368 295.2 128.472 294.5 128.263 293.6C130.252 293.3 132.975 294.2 135.278 296.3C135.592 296.6 136.011 297 136.221 297.3C136.325 296.9 136.535 296.5 136.744 296C138.105 293.3 140.304 291.4 142.293 291C142.398 291.9 142.817 292.6 143.445 292.8C144.073 293.1 144.806 293 145.644 292.5C146.586 294.2 146.482 297 145.12 299.7C144.911 300.1 144.702 300.5 144.388 300.9C144.806 300.9 145.33 300.9 145.853 301C148.995 301.4 151.507 302.8 152.554 304.5C151.717 304.9 151.193 305.5 151.089 306.1C150.984 306.7 151.403 307.4 152.031 308C150.67 309.4 147.843 310.1 144.702 309.8C144.178 309.7 143.759 309.7 143.341 309.5C143.445 309.9 143.55 310.4 143.655 310.8C144.388 314.2 143.759 316.9 142.293 318.3Z" fill="#FFCCCA"/>
<path d="M139.362 311C139.048 310.7 138.734 310.6 138.419 310.6C138.105 310.6 137.896 310.9 137.687 311.3C136.849 310.9 136.116 309.9 135.907 308.6C135.907 308.4 135.802 308.2 135.802 308C135.592 308.1 135.488 308.2 135.278 308.3C134.022 308.9 132.765 309.1 131.928 308.7C132.137 308.3 132.137 308 132.032 307.7C131.928 307.4 131.614 307.3 131.195 307.3C131.3 306.4 132.137 305.5 133.394 304.8L134.022 304.5C133.812 304.4 133.708 304.2 133.498 304.1C132.451 303.2 131.928 302 132.032 301.2C132.451 301.3 132.765 301.2 132.975 301C133.184 300.8 133.184 300.5 133.184 300.1C134.022 299.9 135.278 300.4 136.325 301.3C136.535 301.4 136.639 301.6 136.744 301.7C136.849 301.5 136.849 301.3 136.954 301.1C137.582 299.9 138.524 299.1 139.466 298.9C139.571 299.3 139.676 299.6 139.99 299.7C140.304 299.8 140.618 299.8 140.932 299.6C141.351 300.4 141.351 301.6 140.723 302.8C140.618 303 140.514 303.2 140.409 303.3H141.037C142.398 303.5 143.55 304.1 143.969 304.9C143.55 305.1 143.341 305.3 143.341 305.6C143.341 305.9 143.445 306.2 143.759 306.5C143.131 307.1 141.875 307.5 140.514 307.3C140.304 307.3 140.095 307.2 139.885 307.2C139.99 307.4 139.99 307.6 139.99 307.8C140.304 309.2 139.99 310.4 139.362 311Z" fill="#F1423D"/>
<path d="M137.058 306.5C137.81 306.5 138.419 305.918 138.419 305.2C138.419 304.482 137.81 303.9 137.058 303.9C136.306 303.9 135.697 304.482 135.697 305.2C135.697 305.918 136.306 306.5 137.058 306.5Z" fill="#58595B"/>
<path d="M315.161 480.5C317.674 475 320.291 469.5 322.909 463.9C325.526 458.3 328.144 452.8 330.762 447.2C333.379 441.6 335.997 436.1 338.51 430.6C341.023 425.1 343.64 419.7 346.153 414.4C348.666 409.1 351.074 404 353.378 399.1C355.681 394.2 357.88 389.6 360.079 385.2C362.173 380.8 364.162 376.7 366.047 373C367.932 369.3 369.502 365.8 371.073 362.6C372.643 359.4 373.9 356.7 375.052 354.5C376.203 352.3 377.041 350.5 377.774 349.2C375.785 349.7 374.005 350 372.329 350.3C370.654 350.6 369.293 350.7 367.932 350.7C366.675 350.7 365.209 350.6 363.534 350.3C361.859 350 360.079 349.7 358.09 349.2C355.158 358.2 351.912 367.4 348.561 376.6C345.211 385.8 341.546 395.2 337.777 404.6C334.008 414 330.133 423.2 326.155 432C322.176 440.8 318.092 449.4 314.009 457.7C309.821 448.3 305.842 439 301.863 429.9C297.884 420.8 294.115 411.8 290.346 402.9C286.576 394 283.016 385.1 279.666 376.2C276.211 367.2 273.07 358.3 269.928 349.2C268.672 349.4 267.415 349.6 266.264 349.7C265.112 349.8 263.96 350 262.913 350.2C261.866 350.3 260.714 350.4 259.667 350.5C258.62 350.6 257.469 350.6 256.422 350.6C255.374 350.6 254.223 350.6 253.176 350.5C252.129 350.4 250.977 350.3 249.93 350.2C248.883 350.1 247.731 349.9 246.475 349.7C245.218 349.5 244.066 349.4 242.81 349.2C243.543 350.7 244.38 352.6 245.428 354.9C246.475 357.2 247.626 359.9 249.092 363C250.453 366.1 251.919 369.5 253.594 373.1C255.27 376.7 256.945 380.6 258.725 384.7C260.505 388.8 262.39 393 264.379 397.4C266.368 401.8 268.358 406.3 270.452 411C272.546 415.7 274.535 420.3 276.629 424.9C278.619 429.5 280.608 434 282.598 438.5C284.587 443 286.472 447.3 288.356 451.6C290.241 455.9 292.021 460 293.696 464.1C295.372 468.2 296.942 471.8 298.408 475.1C299.769 478.4 301.026 481.3 302.177 483.9C296.733 496.2 290.032 507.8 284.692 516.4C223.544 613.4 136.744 545.2 109.626 529.6C87.3238 516.7 77.4816 554.6 21.6741 574.6C27.9563 592.5 81.4603 536.2 102.401 542.1C129.415 549.8 219.984 638.7 290.241 524.8" fill="#4A4B4C"/>
<path d="M45.3372 498.8C46.6984 500.8 47.2219 502.8 46.489 504.4C45.756 506 43.9761 507.1 41.5679 507.6C42.929 512.6 48.4784 517.9 56.2265 520.9C66.8016 525 77.3768 523.3 79.8897 517.3C82.4026 511.2 76.0156 503 65.4405 499C57.6924 496 49.9442 496.1 45.3372 498.8Z" fill="#FFCCCA"/>
<path d="M166.376 531.2C163.653 531.6 161.35 531.2 159.989 529.8C158.627 528.4 158.313 526.2 158.837 523.7C153.078 522.7 145.016 525.5 138.419 531.5C137.372 532.4 136.43 533.4 135.592 534.4C135.174 533.2 134.65 531.9 134.022 530.7C130.148 522.8 123.761 517.3 118.002 516.3C117.583 518.9 116.432 520.8 114.652 521.6C112.872 522.4 110.568 522 108.16 520.7C105.333 525.6 105.752 533.8 109.626 541.7C110.254 542.9 110.882 544.1 111.615 545.2C110.254 545.2 108.893 545.3 107.427 545.5C98.3177 546.6 90.9884 550.7 88.0566 555.6C90.4648 556.8 92.0354 558.4 92.3495 560.3C92.5589 562.2 91.5119 564.1 89.4178 565.9C93.5013 570 101.668 572.2 110.778 571.1C112.139 570.9 113.5 570.7 114.861 570.4C114.442 571.6 114.128 572.9 113.814 574.2C112.139 582.8 113.919 590.8 117.897 594.9C119.887 593.1 121.981 592.1 123.97 592.5C125.96 592.9 127.53 594.4 128.682 596.9C134.022 594.5 138.734 587.7 140.409 579.1C140.723 577.8 140.828 576.4 140.932 575.2C142.084 575.9 143.236 576.7 144.492 577.3C152.555 581.5 161.036 582.4 166.376 580C165.119 577.6 164.91 575.5 165.852 573.8C166.794 572.1 168.888 571.2 171.611 570.9C170.878 565.3 165.538 558.9 157.58 554.7C156.324 554 155.068 553.5 153.811 553C154.858 552.2 156.01 551.4 156.952 550.5C163.653 544.2 167.109 536.7 166.376 531.2Z" fill="#FFCCCA"/>
<path d="M334.531 530.1C333.589 529.8 332.856 529.3 332.646 528.7C332.437 528 332.646 527.2 333.274 526.5C331.495 525.3 328.353 525 325.108 526.1C324.584 526.3 324.165 526.4 323.642 526.6C323.746 526.1 323.746 525.6 323.746 525.1C323.746 521.9 322.49 519.1 320.71 517.8C320.082 518.6 319.453 519.1 318.721 519.1C317.988 519.1 317.255 518.6 316.731 517.8C314.951 519 313.799 521.8 313.799 525.1C313.799 525.6 313.799 526.1 313.904 526.6C313.485 526.4 312.962 526.2 312.438 526.1C309.192 525.1 306.051 525.4 304.271 526.6C304.9 527.4 305.109 528.2 304.9 528.8C304.69 529.5 303.957 530 303.015 530.3C303.748 532.3 306.156 534.2 309.402 535.2C309.925 535.4 310.449 535.5 310.868 535.6C310.554 536 310.24 536.3 309.925 536.7C307.936 539.3 307.203 542.3 307.936 544.3C308.878 544 309.716 544 310.344 544.4C310.972 544.8 311.182 545.6 311.182 546.6C313.381 546.6 316.103 545 318.092 542.4C318.406 542 318.721 541.6 318.93 541.2C319.139 541.6 319.453 542 319.768 542.4C321.757 545 324.479 546.6 326.678 546.6C326.678 545.6 326.888 544.8 327.516 544.4C328.144 544 328.982 544 329.924 544.3C330.552 542.3 329.819 539.4 327.83 536.7C327.516 536.3 327.202 535.9 326.888 535.6C327.411 535.5 327.83 535.4 328.353 535.2C331.495 534 333.903 532.1 334.531 530.1Z" fill="#FFCCCA"/>
<path d="M325.84 531.2C325.422 531.1 325.107 530.9 325.003 530.6C324.898 530.3 325.003 530 325.317 529.6C324.479 529.1 323.118 529 321.652 529.4C321.443 529.5 321.233 529.6 321.024 529.6V528.9C321.024 527.5 320.5 526.2 319.663 525.7C319.453 526.1 319.139 526.3 318.72 526.3C318.406 526.3 318.092 526.1 317.778 525.7C317.045 526.3 316.417 527.5 316.417 528.9V529.6C316.208 529.5 315.998 529.4 315.789 529.4C314.323 529 312.962 529.1 312.124 529.6C312.438 529.9 312.543 530.3 312.438 530.6C312.334 530.9 312.019 531.1 311.601 531.2C311.915 532.1 312.962 533 314.428 533.4C314.637 533.5 314.846 533.5 315.056 533.6C314.951 533.8 314.742 533.9 314.637 534.1C313.799 535.3 313.485 536.6 313.695 537.5C314.113 537.4 314.532 537.4 314.742 537.5C314.951 537.6 315.161 538 315.161 538.5C316.103 538.5 317.359 537.8 318.197 536.6C318.302 536.4 318.406 536.2 318.616 536C318.72 536.2 318.825 536.4 319.035 536.6C319.977 537.8 321.129 538.5 322.071 538.5C322.071 538.1 322.176 537.7 322.49 537.5C322.804 537.3 323.118 537.3 323.537 537.5C323.851 536.6 323.537 535.3 322.595 534.1C322.49 533.9 322.28 533.8 322.176 533.6C322.385 533.6 322.595 533.5 322.804 533.4C324.479 533 325.526 532.1 325.84 531.2Z" fill="#F1423D"/>
<path d="M318.825 533.5C319.635 533.5 320.291 532.873 320.291 532.1C320.291 531.327 319.635 530.7 318.825 530.7C318.016 530.7 317.359 531.327 317.359 532.1C317.359 532.873 318.016 533.5 318.825 533.5Z" fill="#58595B"/>
<path d="M268.986 561.3C267.206 560.6 266.054 559.7 265.74 558.4C265.426 557.1 266.054 555.8 267.31 554.4C264.274 551.9 258.515 551 252.442 552.4C251.5 552.6 250.558 552.9 249.72 553.2C249.929 552.3 250.034 551.4 250.139 550.5C250.662 544.6 248.882 539.3 245.846 536.8C244.694 538.2 243.333 538.9 241.972 538.8C240.611 538.7 239.459 537.7 238.517 536.2C235.061 538.2 232.444 543.1 231.92 549C231.816 549.9 231.816 550.8 231.816 551.7L229.303 550.5C223.544 548.2 217.785 548.2 214.33 550.2C215.377 551.7 215.691 553.2 215.168 554.4C214.644 555.6 213.283 556.4 211.503 556.8C212.445 560.5 216.529 564.5 222.287 566.8C223.23 567.2 224.067 567.5 224.905 567.7C224.277 568.3 223.544 568.9 222.916 569.6C218.832 574.1 217.052 579.4 217.995 583.1C219.775 582.6 221.345 582.8 222.392 583.6C223.439 584.5 223.753 585.9 223.649 587.7C227.627 588 232.863 585.5 236.841 581C237.47 580.3 237.993 579.6 238.517 578.9C238.935 579.7 239.354 580.5 239.878 581.3C243.124 586.4 247.835 589.6 251.814 590C251.919 588.2 252.547 586.8 253.699 586.2C254.851 585.5 256.421 585.6 258.096 586.4C259.667 582.9 258.725 577.4 255.584 572.3C255.06 571.5 254.536 570.8 254.013 570.1C254.955 570 255.898 569.8 256.84 569.6C262.703 568.1 267.415 564.8 268.986 561.3Z" fill="#FFCCCA"/>
<path d="M146.377 543.4C145.121 543.6 144.178 543.4 143.55 542.8C142.922 542.2 142.817 541.2 143.027 540.1C140.409 539.6 136.849 540.9 133.917 543.6C133.498 544 133.08 544.4 132.661 544.9C132.451 544.4 132.242 543.8 131.928 543.3C130.148 539.8 127.321 537.3 124.808 536.9C124.599 538.1 124.075 538.9 123.342 539.3C122.504 539.7 121.562 539.5 120.41 538.9C119.154 541.1 119.363 544.7 121.039 548.3C121.353 548.8 121.562 549.4 121.876 549.9C121.248 549.9 120.62 549.9 119.992 550C115.908 550.5 112.662 552.3 111.406 554.5C112.453 555 113.186 555.8 113.29 556.6C113.395 557.4 112.872 558.3 112.034 559.1C113.814 560.9 117.479 561.9 121.562 561.4C122.19 561.3 122.819 561.2 123.342 561.1C123.133 561.7 123.028 562.2 122.923 562.8C122.19 566.6 122.923 570.2 124.703 572C125.541 571.2 126.483 570.8 127.426 570.9C128.263 571.1 128.996 571.8 129.52 572.8C131.928 571.7 134.022 568.7 134.755 564.9C134.86 564.3 134.964 563.7 134.964 563.1C135.488 563.4 136.011 563.8 136.535 564C140.095 565.9 143.864 566.3 146.272 565.2C145.749 564.1 145.644 563.2 146.063 562.4C146.482 561.6 147.424 561.2 148.681 561.1C148.366 558.6 145.958 555.8 142.398 553.9C141.875 553.6 141.247 553.4 140.723 553.1C141.247 552.8 141.665 552.4 142.189 552C145.121 549.2 146.691 545.9 146.377 543.4Z" fill="#F1423D"/>
<path d="M191.714 552.9C195.646 552.9 198.834 549.855 198.834 546.1C198.834 542.344 195.646 539.3 191.714 539.3C187.782 539.3 184.594 542.344 184.594 546.1C184.594 549.855 187.782 552.9 191.714 552.9Z" fill="#F8DDDE"/>
<path d="M56.9592 579.9C55.4934 578.7 54.7604 577.4 54.9699 576C55.1793 574.7 56.2263 573.6 57.9016 572.7C55.9122 569.3 50.7817 566.5 44.3947 565.8C43.4524 565.7 42.4053 565.6 41.463 565.6C41.9865 564.8 42.4053 564 42.8241 563.2C45.4417 557.7 45.6512 552 43.6618 548.6C41.9865 549.5 40.4159 549.8 39.1595 549.3C37.903 548.8 37.0654 547.4 36.7513 545.6C32.7725 546.4 28.3749 550.2 25.7573 555.7C25.3385 556.6 25.0244 557.4 24.7103 558.3C24.082 557.6 23.4538 557 22.7209 556.3C18.0092 552.2 12.4598 550.3 8.48106 551C8.89988 552.8 8.69047 554.3 7.74813 555.3C6.80579 556.3 5.23523 556.6 3.35055 556.3C2.93173 560.2 5.33993 565.3 10.0516 569.4C10.7846 570 11.5175 570.6 12.2504 571.1C11.4128 571.4 10.4705 571.8 9.63282 572.3C4.08348 575.3 0.418818 579.7 0 583.6C1.88468 583.8 3.35055 584.4 3.97877 585.6C4.7117 586.8 4.50229 588.3 3.66466 589.9C7.32931 591.5 13.2975 590.9 18.8468 587.9C19.6844 587.4 20.5221 586.9 21.255 586.4C21.3597 587.3 21.4644 588.2 21.6738 589.1C22.9303 595.1 26.2808 599.7 29.9455 601.4C30.6784 599.7 31.8302 598.6 33.1913 598.4C34.5525 598.1 36.0183 598.8 37.3795 600C40.1018 597.1 41.3583 591.6 40.1018 585.6C39.8924 584.7 39.683 583.8 39.3689 582.9C40.3112 583.1 41.2536 583.3 42.1959 583.4C48.4782 584.3 54.1322 582.8 56.9592 579.9Z" fill="#FFCCCA"/>
<path d="M130.252 557C132.392 557 134.127 555.344 134.127 553.3C134.127 551.257 132.392 549.6 130.252 549.6C128.113 549.6 126.378 551.257 126.378 553.3C126.378 555.344 128.113 557 130.252 557Z" fill="#58595B"/>
<path d="M252.861 562C252.128 561.7 251.605 561.3 251.395 560.7C251.186 560.1 251.5 559.5 252.128 558.9C250.767 557.8 248.254 557.4 245.532 558L244.276 558.3C244.38 557.9 244.38 557.5 244.485 557.1C244.694 554.5 243.961 552.1 242.6 551C242.077 551.6 241.449 552 240.82 551.9C240.192 551.9 239.669 551.4 239.25 550.7C237.679 551.6 236.527 553.8 236.318 556.4V557.6C236.004 557.4 235.585 557.2 235.166 557.1C232.653 556.1 230.036 556.1 228.465 557C228.884 557.7 229.093 558.3 228.884 558.9C228.675 559.4 228.046 559.8 227.209 560C227.628 561.7 229.408 563.4 232.025 564.4C232.444 564.6 232.863 564.7 233.177 564.8C232.863 565.1 232.549 565.4 232.339 565.7C230.559 567.7 229.722 570.1 230.14 571.7C230.978 571.5 231.606 571.6 232.13 571.9C232.549 572.3 232.758 572.9 232.653 573.7C234.433 573.8 236.737 572.7 238.517 570.7C238.831 570.4 239.04 570.1 239.25 569.7C239.459 570.1 239.669 570.4 239.878 570.8C241.344 573.1 243.438 574.5 245.218 574.7C245.218 573.9 245.532 573.3 246.056 573C246.579 572.7 247.312 572.7 248.045 573.1C248.778 571.5 248.359 569.1 246.893 566.8C246.684 566.4 246.474 566.1 246.16 565.8C246.579 565.8 246.998 565.7 247.417 565.6C250.034 565 252.128 563.6 252.861 562Z" fill="#F1423D"/>
<path d="M41.1487 575.2C40.5205 574.7 40.2064 574.1 40.2064 573.5C40.3111 572.9 40.7299 572.4 41.4629 572C40.5205 570.5 38.3217 569.2 35.4947 568.9C35.0759 568.9 34.6571 568.8 34.2383 568.8C34.4477 568.5 34.6571 568.1 34.8665 567.7C36.0182 565.2 36.1229 562.7 35.2853 561.2C34.5524 561.6 33.8194 561.7 33.2959 561.5C32.7724 561.3 32.3536 560.7 32.2489 559.9C30.4689 560.2 28.4795 561.9 27.3278 564.4C27.1184 564.8 27.0137 565.2 26.9089 565.5C26.5948 565.2 26.3854 564.9 25.9666 564.6C23.8725 562.8 21.3596 561.9 19.5796 562.2C19.789 563 19.6843 563.7 19.2655 564.1C18.8467 564.5 18.1138 564.7 17.2761 564.6C17.0667 566.3 18.1138 568.6 20.2079 570.5C20.522 570.8 20.8361 571 21.1502 571.3C20.7314 571.5 20.4173 571.6 19.9984 571.8C17.4855 573.1 15.915 575.1 15.7056 576.8C16.5432 576.9 17.1714 577.2 17.4855 577.7C17.7997 578.2 17.6949 578.9 17.3808 579.6C19.0561 580.3 21.6737 580 24.0819 578.7C24.5007 578.5 24.8149 578.3 25.129 578C25.129 578.4 25.2337 578.8 25.3384 579.2C25.8619 581.9 27.3278 583.9 29.003 584.7C29.3172 584 29.8407 583.5 30.4689 583.3C31.0971 583.2 31.7254 583.5 32.3536 584C33.61 582.7 34.1336 580.2 33.5053 577.6L33.1912 576.4C33.61 576.5 34.0288 576.6 34.4477 576.6C37.3794 577.2 39.997 576.5 41.1487 575.2Z" fill="#F1423D"/>
<path d="M239.878 565.1C241.324 565.1 242.496 563.981 242.496 562.6C242.496 561.219 241.324 560.1 239.878 560.1C238.432 560.1 237.26 561.219 237.26 562.6C237.26 563.981 238.432 565.1 239.878 565.1Z" fill="#58595B"/>
<path d="M290.032 587.4C296.855 587.4 302.387 582.117 302.387 575.6C302.387 569.083 296.855 563.8 290.032 563.8C283.208 563.8 277.677 569.083 277.677 575.6C277.677 582.117 283.208 587.4 290.032 587.4Z" fill="#F8DDDE"/>
<path d="M28.4799 574C29.9256 574 31.0975 572.881 31.0975 571.5C31.0975 570.119 29.9256 569 28.4799 569C27.0342 569 25.8623 570.119 25.8623 571.5C25.8623 572.881 27.0342 574 28.4799 574Z" fill="#58595B"/>
<path d="M202.813 608.3C203.86 613 200.718 617.7 195.797 618.7C190.876 619.7 185.955 616.7 184.908 612C183.861 607.3 187.002 602.6 191.923 601.6C196.844 600.6 201.661 603.6 202.813 608.3ZM187.002 611.6C187.84 615.2 191.504 617.4 195.169 616.7C198.938 615.9 201.242 612.4 200.509 608.9C199.671 605.3 196.007 603.1 192.342 603.8C188.573 604.5 186.269 608 187.002 611.6Z" fill="#F8DDDE"/>
</svg>
